<?xml version="1.0" encoding="UTF-8"?>
<svg xmlns="http://www.w3.org/2000/svg" xmlns:xlink="http://www.w3.org/1999/xlink"
     width="1024" height="1024" viewBox="0 0 1024 1024">
<defs>
</defs>
<rect x="0" y="0" width="1024" height="1024" fill="#000000" />
<path d="M548.4461538461538,371.71880130430526 L638.7692307692307,215.27464297758408 L729.0923076923076,371.71880130430526 L548.4461538461538,371.71880130430526" stroke="#00202e" stroke-width="2.0" fill="none" />
<path d="M294.9076923076923,486.99344428188937 L385.2307692307692,643.4376026086105 L475.55384615384617,486.99344428188937 L294.9076923076923,486.99344428188937" stroke="#003f5c" stroke-width="2.0" fill="none" />
<path d="M738.6,810.8602983617683 L797.2307692307693,709.30882716723 L855.8615384615385,810.8602983617683 L738.6,810.8602983617683" stroke="#8a508f" stroke-width="2.0" fill="none" />
<path d="M516.7538461538462,102.74463435660914 L575.3846153846155,204.29610555114743 L634.0153846153847,102.74463435660914 L516.7538461538462,102.74463435660914" stroke="#003f5c" stroke-width="2.0" fill="none" />
<path d="M706.9076923076922,207.04073990775657 L765.5384615384614,105.48926871321827 L824.1692307692307,207.04073990775657 L706.9076923076922,207.04073990775657" stroke="#00202e" stroke-width="2.0" fill="none" />
<path d="M136.44615384615383,536.396862700854 L163.38461538461536,489.73807863849845 L190.32307692307688,536.396862700854 L136.44615384615383,536.396862700854" stroke="#ffa600" stroke-width="2.0" fill="none" />
<path d="M706.9076923076923,212.5300086209749 L733.8461538461538,259.18879268333035 L760.7846153846153,212.5300086209749 L706.9076923076923,212.5300086209749" stroke="#bc5090" stroke-width="2.0" fill="none" />
<path d="M865.3692307692309,157.63732148879203 L892.3076923076924,204.29610555114746 L919.2461538461539,157.63732148879203 L865.3692307692309,157.63732148879203" stroke="#ffa600" stroke-width="2.0" fill="none" />
<path d="M706.9076923076923,871.2422542071695 L733.8461538461538,917.901038269525 L760.7846153846153,871.2422542071695 L706.9076923076923,871.2422542071695" stroke="#ff6361" stroke-width="2.0" fill="none" />
<path d="M453.3692307692307,761.4568799428038 L543.6923076923076,917.901038269525 L634.0153846153845,761.4568799428038 L453.3692307692307,761.4568799428038" stroke="#2c4875" stroke-width="2.0" fill="none" />
<path d="M104.75384615384614,481.504175568671 L195.07692307692307,325.0600172419498 L285.4,481.504175568671 L104.75384615384614,481.504175568671" stroke="#00202e" stroke-width="2.0" fill="none" />
<path d="M421.67692307692306,701.0749240974026 L448.6153846153846,654.4161400350471 L475.5538461538461,701.0749240974026 L421.67692307692306,701.0749240974026" stroke="#8a508f" stroke-width="2.0" fill="none" />
<path d="M168.1384615384615,267.42269575315777 L195.07692307692307,314.0814798155132 L222.01538461538462,267.42269575315777 L168.1384615384615,267.42269575315777" stroke="#ffd380" stroke-width="2.0" fill="none" />
<path d="M199.83076923076925,651.6715056784379 L226.76923076923077,698.3302897407934 L253.7076923076923,651.6715056784379 L199.83076923076925,651.6715056784379" stroke="#ff8531" stroke-width="2.0" fill="none" />
<path d="M770.2923076923076,102.74463435660914 L828.9230769230769,204.29610555114743 L887.5538461538462,102.74463435660914 L770.2923076923076,102.74463435660914" stroke="#003f5c" stroke-width="2.0" fill="none" />
<path d="M263.21538461538455,322.3153828853407 L321.8461538461538,423.866854079879 L380.4769230769231,322.3153828853407 L263.21538461538455,322.3153828853407" stroke="#ffd380" stroke-width="2.0" fill="none" />
<path d="M865.3692307692309,486.9934442818893 L892.3076923076924,533.6522283442448 L919.2461538461539,486.9934442818893 L865.3692307692309,486.9934442818893" stroke="#ffd380" stroke-width="2.0" fill="none" />
<path d="M706.9076923076922,316.82611417212235 L765.5384615384614,215.27464297758405 L824.1692307692307,316.82611417212235 L706.9076923076922,316.82611417212235" stroke="#ffa600" stroke-width="2.0" fill="none" />
<path d="M738.5999999999999,481.504175568671 L765.5384615384614,434.84539150631554 L792.476923076923,481.504175568671 L738.5999999999999,481.504175568671" stroke="#ffd380" stroke-width="2.0" fill="none" />
<path d="M801.9846153846153,920.645672626134 L860.6153846153845,819.0942014315957 L919.2461538461538,920.645672626134 L801.9846153846153,920.645672626134" stroke="#ffa600" stroke-width="2.0" fill="none" />
<path d="M643.523076923077,865.7529854939512 L670.4615384615386,819.0942014315957 L697.4000000000001,865.7529854939512 L643.523076923077,865.7529854939512" stroke="#bc5090" stroke-width="2.0" fill="none" />
<path d="M136.44615384615383,316.82611417212235 L163.38461538461536,270.1673301097669 L190.32307692307688,316.82611417212235 L136.44615384615383,316.82611417212235" stroke="#2c4875" stroke-width="2.0" fill="none" />
<path d="M611.8307692307693,486.99344428188937 L702.1538461538462,643.4376026086105 L792.4769230769231,486.99344428188937 L611.8307692307693,486.99344428188937" stroke="#ffa600" stroke-width="2.0" fill="none" />
<path d="M770.2923076923078,646.1822369652197 L797.2307692307693,599.5234529028642 L824.1692307692308,646.1822369652197 L770.2923076923078,646.1822369652197" stroke="#2c4875" stroke-width="2.0" fill="none" />
<path d="M263.2153846153846,755.9676112295854 L353.53846153846155,599.5234529028642 L443.8615384615385,755.9676112295854 L263.2153846153846,755.9676112295854" stroke="#ffa600" stroke-width="2.0" fill="none" />
<path d="M801.9846153846154,596.778818546255 L828.9230769230769,643.4376026086105 L855.8615384615384,596.778818546255 L801.9846153846154,596.778818546255" stroke="#8a508f" stroke-width="2.0" fill="none" />
<path d="M231.52307692307693,261.9334270399395 L258.46153846153845,215.27464297758405 L285.4,261.9334270399395 L231.52307692307693,261.9334270399395" stroke="#ffd380" stroke-width="2.0" fill="none" />
<path d="M326.6,316.82611417212235 L385.2307692307692,215.27464297758405 L443.86153846153843,316.82611417212235 L326.6,316.82611417212235" stroke="#bc5090" stroke-width="2.0" fill="none" />
<path d="M453.3692307692308,316.82611417212235 L480.3076923076923,270.1673301097669 L507.24615384615385,316.82611417212235 L453.3692307692308,316.82611417212235" stroke="#ff8531" stroke-width="2.0" fill="none" />
<path d="M516.7538461538461,541.8861314140722 L543.6923076923076,588.5449154764277 L570.6307692307691,541.8861314140722 L516.7538461538461,541.8861314140722" stroke="#ff6361" stroke-width="2.0" fill="none" />
<path d="M389.9846153846154,102.74463435660914 L448.6153846153846,204.29610555114743 L507.2461538461538,102.74463435660914 L389.9846153846154,102.74463435660914" stroke="#bc5090" stroke-width="2.0" fill="none" />
<path d="M231.5230769230769,816.3495670749867 L290.15384615384613,917.901038269525 L348.78461538461534,816.3495670749867 L231.5230769230769,816.3495670749867" stroke="#ffa600" stroke-width="2.0" fill="none" />
<path d="M580.1384615384616,207.04073990775663 L607.0769230769231,160.3819558454012 L634.0153846153846,207.04073990775663 L580.1384615384616,207.04073990775663" stroke="#ff6361" stroke-width="2.0" fill="none" />
<path d="M168.1384615384615,920.6456726261341 L195.07692307692307,873.9868885637786 L222.01538461538462,920.6456726261341 L168.1384615384615,920.6456726261341" stroke="#ffa600" stroke-width="2.0" fill="none" />
<path d="M326.6,871.2422542071695 L353.53846153846155,917.901038269525 L380.4769230769231,871.2422542071695 L326.6,871.2422542071695" stroke="#003f5c" stroke-width="2.0" fill="none" />
<path d="M485.0615384615385,596.778818546255 L512.0,643.4376026086105 L538.9384615384615,596.778818546255 L485.0615384615385,596.778818546255" stroke="#ffd380" stroke-width="2.0" fill="none" />
<path d="M580.1384615384617,755.9676112295854 L670.4615384615386,599.5234529028642 L760.7846153846154,755.9676112295854 L580.1384615384617,755.9676112295854" stroke="#ff8531" stroke-width="2.0" fill="none" />
<path d="M231.5230769230769,596.7788185462551 L290.15384615384613,698.3302897407934 L348.78461538461534,596.7788185462551 L231.5230769230769,596.7788185462551" stroke="#ff8531" stroke-width="2.0" fill="none" />
<path d="M104.75384615384613,596.7788185462551 L163.38461538461536,698.3302897407934 L222.0153846153846,596.7788185462551 L104.75384615384613,596.7788185462551" stroke="#bc5090" stroke-width="2.0" fill="none" />
<path d="M358.29230769230765,920.645672626134 L416.9230769230769,819.0942014315957 L475.55384615384617,920.645672626134 L358.29230769230765,920.645672626134" stroke="#00202e" stroke-width="2.0" fill="none" />
<path d="M389.9846153846154,651.6715056784379 L416.9230769230769,698.3302897407934 L443.86153846153843,651.6715056784379 L389.9846153846154,651.6715056784379" stroke="#ff6361" stroke-width="2.0" fill="none" />
<path d="M421.67692307692306,706.5641928106209 L448.6153846153846,753.2229768729763 L475.5538461538461,706.5641928106209 L421.67692307692306,706.5641928106209" stroke="#ffa600" stroke-width="2.0" fill="none" />
<path d="M199.83076923076925,541.8861314140722 L226.76923076923077,588.5449154764277 L253.7076923076923,541.8861314140722 L199.83076923076925,541.8861314140722" stroke="#8a508f" stroke-width="2.0" fill="none" />
<path d="M199.83076923076925,316.82611417212235 L226.76923076923077,270.1673301097669 L253.7076923076923,316.82611417212235 L199.83076923076925,316.82611417212235" stroke="#ff8531" stroke-width="2.0" fill="none" />
<path d="M421.67692307692306,261.9334270399395 L512.0,105.48926871321828 L602.3230769230769,261.9334270399395 L421.67692307692306,261.9334270399395" stroke="#ffd380" stroke-width="2.0" fill="none" />
<path d="M358.29230769230765,481.504175568671 L448.6153846153846,325.0600172419498 L538.9384615384615,481.504175568671 L358.29230769230765,481.504175568671" stroke="#bc5090" stroke-width="2.0" fill="none" />
<path d="M801.9846153846153,261.9334270399395 L860.6153846153845,160.3819558454012 L919.2461538461538,261.9334270399395 L801.9846153846153,261.9334270399395" stroke="#2c4875" stroke-width="2.0" fill="none" />
<path d="M738.5999999999999,920.6456726261341 L765.5384615384614,873.9868885637786 L792.476923076923,920.6456726261341 L738.5999999999999,920.6456726261341" stroke="#ffa600" stroke-width="2.0" fill="none" />
<path d="M706.9076923076923,865.7529854939512 L733.8461538461538,819.0942014315957 L760.7846153846153,865.7529854939512 L706.9076923076923,865.7529854939512" stroke="#ffd380" stroke-width="2.0" fill="none" />
<path d="M611.8307692307693,157.63732148879205 L670.4615384615386,259.18879268333035 L729.0923076923078,157.63732148879205 L611.8307692307693,157.63732148879205" stroke="#003f5c" stroke-width="2.0" fill="none" />
<path d="M453.3692307692308,541.8861314140722 L480.3076923076923,588.5449154764277 L507.24615384615385,541.8861314140722 L453.3692307692308,541.8861314140722" stroke="#ff6361" stroke-width="2.0" fill="none" />
<path d="M801.9846153846153,481.504175568671 L860.6153846153845,379.9527043741327 L919.2461538461538,481.504175568671 L801.9846153846153,481.504175568671" stroke="#2c4875" stroke-width="2.0" fill="none" />
<path d="M706.9076923076923,322.3153828853407 L733.8461538461538,368.9741669476961 L760.7846153846153,322.3153828853407 L706.9076923076923,322.3153828853407" stroke="#ffa600" stroke-width="2.0" fill="none" />
<path d="M104.75384615384614,816.3495670749866 L131.69230769230768,863.0083511373421 L158.6307692307692,816.3495670749866 L104.75384615384614,816.3495670749866" stroke="#ffa600" stroke-width="2.0" fill="none" />
<path d="M738.5999999999999,706.5641928106209 L765.5384615384614,753.2229768729763 L792.476923076923,706.5641928106209 L738.5999999999999,706.5641928106209" stroke="#ffa600" stroke-width="2.0" fill="none" />
<path d="M738.6,377.20807001752354 L797.2307692307693,478.75954121206183 L855.8615384615385,377.20807001752354 L738.6,377.20807001752354" stroke="#ff8531" stroke-width="2.0" fill="none" />
<path d="M453.36923076923074,755.9676112295854 L512.0,654.4161400350471 L570.6307692307693,755.9676112295854 L453.36923076923074,755.9676112295854" stroke="#ffa600" stroke-width="2.0" fill="none" />
<path d="M801.9846153846153,267.4226957531578 L860.6153846153845,368.9741669476961 L919.2461538461538,267.4226957531578 L801.9846153846153,267.4226957531578" stroke="#ffd380" stroke-width="2.0" fill="none" />
<path d="M801.9846153846154,486.9934442818893 L828.9230769230769,533.6522283442448 L855.8615384615384,486.9934442818893 L801.9846153846154,486.9934442818893" stroke="#00202e" stroke-width="2.0" fill="none" />
<path d="M231.52307692307693,157.63732148879203 L258.46153846153845,204.29610555114746 L285.4,157.63732148879203 L231.52307692307693,157.63732148879203" stroke="#8a508f" stroke-width="2.0" fill="none" />
<path d="M865.3692307692309,596.778818546255 L892.3076923076924,643.4376026086105 L919.2461538461539,596.778818546255 L865.3692307692309,596.778818546255" stroke="#8a508f" stroke-width="2.0" fill="none" />
<path d="M548.4461538461538,591.2895498330367 L607.0769230769231,489.73807863849845 L665.7076923076924,591.2895498330367 L548.4461538461538,591.2895498330367" stroke="#00202e" stroke-width="2.0" fill="none" />
<path d="M738.5999999999999,816.3495670749866 L765.5384615384614,863.0083511373421 L792.476923076923,816.3495670749866 L738.5999999999999,816.3495670749866" stroke="#00202e" stroke-width="2.0" fill="none" />
<path d="M263.21538461538455,207.04073990775657 L321.8461538461538,105.48926871321827 L380.4769230769231,207.04073990775657 L263.21538461538455,207.04073990775657" stroke="#bc5090" stroke-width="2.0" fill="none" />
<path d="M453.3692307692308,646.1822369652197 L480.3076923076923,599.5234529028642 L507.24615384615385,646.1822369652197 L453.3692307692308,646.1822369652197" stroke="#2c4875" stroke-width="2.0" fill="none" />
<path d="M389.9846153846154,646.1822369652197 L416.9230769230769,599.5234529028642 L443.86153846153843,646.1822369652197 L389.9846153846154,646.1822369652197" stroke="#ff8531" stroke-width="2.0" fill="none" />
<path d="M770.2923076923078,865.7529854939512 L797.2307692307693,819.0942014315957 L824.1692307692308,865.7529854939512 L770.2923076923078,865.7529854939512" stroke="#bc5090" stroke-width="2.0" fill="none" />
<path d="M801.9846153846154,706.5641928106209 L828.9230769230769,753.2229768729763 L855.8615384615384,706.5641928106209 L801.9846153846154,706.5641928106209" stroke="#ff6361" stroke-width="2.0" fill="none" />
<path d="M485.0615384615385,486.9934442818893 L512.0,533.6522283442448 L538.9384615384615,486.9934442818893 L485.0615384615385,486.9934442818893" stroke="#ffd380" stroke-width="2.0" fill="none" />
<path d="M326.6,426.6114884364881 L353.53846153846155,379.9527043741327 L380.4769230769231,426.6114884364881 L326.6,426.6114884364881" stroke="#2c4875" stroke-width="2.0" fill="none" />
<path d="M675.2153846153847,261.9334270399395 L702.1538461538462,215.27464297758405 L729.0923076923077,261.9334270399395 L675.2153846153847,261.9334270399395" stroke="#ff6361" stroke-width="2.0" fill="none" />
<path d="M231.52307692307693,920.6456726261341 L258.46153846153845,873.9868885637786 L285.4,920.6456726261341 L231.52307692307693,920.6456726261341" stroke="#ffd380" stroke-width="2.0" fill="none" />
<path d="M168.1384615384615,810.8602983617683 L195.07692307692307,764.2015142994128 L222.01538461538462,810.8602983617683 L168.1384615384615,810.8602983617683" stroke="#ffd380" stroke-width="2.0" fill="none" />
<path d="M548.446153846154,596.778818546255 L575.3846153846155,643.4376026086105 L602.323076923077,596.778818546255 L548.446153846154,596.778818546255" stroke="#bc5090" stroke-width="2.0" fill="none" />
<path d="M389.9846153846154,322.3153828853407 L416.9230769230769,368.9741669476961 L443.86153846153843,322.3153828853407 L389.9846153846154,322.3153828853407" stroke="#00202e" stroke-width="2.0" fill="none" />
<path d="M801.9846153846154,371.71880130430526 L828.9230769230769,325.0600172419498 L855.8615384615384,371.71880130430526 L801.9846153846154,371.71880130430526" stroke="#ffd380" stroke-width="2.0" fill="none" />
<path d="M199.83076923076925,322.3153828853407 L226.76923076923077,368.9741669476961 L253.7076923076923,322.3153828853407 L199.83076923076925,322.3153828853407" stroke="#003f5c" stroke-width="2.0" fill="none" />
<path d="M263.2153846153846,102.74463435660914 L290.15384615384613,149.40341841896458 L317.09230769230766,102.74463435660914 L263.2153846153846,102.74463435660914" stroke="#00202e" stroke-width="2.0" fill="none" />
<path d="M580.1384615384616,871.2422542071695 L607.0769230769231,917.901038269525 L634.0153846153846,871.2422542071695 L580.1384615384616,871.2422542071695" stroke="#bc5090" stroke-width="2.0" fill="none" />
<path d="M453.3692307692308,536.396862700854 L480.3076923076923,489.73807863849845 L507.24615384615385,536.396862700854 L453.3692307692308,536.396862700854" stroke="#ff6361" stroke-width="2.0" fill="none" />
<path d="M104.75384615384614,810.8602983617683 L131.69230769230768,764.2015142994128 L158.6307692307692,810.8602983617683 L104.75384615384614,810.8602983617683" stroke="#2c4875" stroke-width="2.0" fill="none" />
<path d="M548.446153846154,701.0749240974026 L575.3846153846155,654.4161400350471 L602.323076923077,701.0749240974026 L548.446153846154,701.0749240974026" stroke="#2c4875" stroke-width="2.0" fill="none" />
<path d="M421.67692307692306,810.8602983617683 L448.6153846153846,764.2015142994128 L475.5538461538461,810.8602983617683 L421.67692307692306,810.8602983617683" stroke="#ffa600" stroke-width="2.0" fill="none" />
<path d="M706.9076923076923,432.1007571497064 L733.8461538461538,478.75954121206183 L760.7846153846153,432.1007571497064 L706.9076923076923,432.1007571497064" stroke="#ff6361" stroke-width="2.0" fill="none" />
<path d="M168.1384615384615,486.9934442818893 L195.07692307692307,533.6522283442448 L222.01538461538462,486.9934442818893 L168.1384615384615,486.9934442818893" stroke="#ffa600" stroke-width="2.0" fill="none" />
<path d="M358.2923076923077,816.3495670749866 L385.2307692307692,863.0083511373421 L412.16923076923075,816.3495670749866 L358.2923076923077,816.3495670749866" stroke="#ff6361" stroke-width="2.0" fill="none" />
<path d="M294.9076923076923,267.42269575315777 L321.8461538461538,314.0814798155132 L348.78461538461534,267.42269575315777 L294.9076923076923,267.42269575315777" stroke="#ffa600" stroke-width="2.0" fill="none" />
<path d="M643.523076923077,426.6114884364881 L670.4615384615386,379.9527043741327 L697.4000000000001,426.6114884364881 L643.523076923077,426.6114884364881" stroke="#ffd380" stroke-width="2.0" fill="none" />
<path d="M168.1384615384615,816.3495670749866 L195.07692307692307,863.0083511373421 L222.01538461538462,816.3495670749866 L168.1384615384615,816.3495670749866" stroke="#bc5090" stroke-width="2.0" fill="none" />
<path d="M611.8307692307692,481.504175568671 L638.7692307692307,434.84539150631554 L665.7076923076922,481.504175568671 L611.8307692307692,481.504175568671" stroke="#00202e" stroke-width="2.0" fill="none" />
<path d="M485.0615384615385,267.42269575315777 L512.0,314.0814798155132 L538.9384615384615,267.42269575315777 L485.0615384615385,267.42269575315777" stroke="#ff6361" stroke-width="2.0" fill="none" />
<path d="M231.52307692307693,152.14805277557372 L258.46153846153845,105.48926871321828 L285.4,152.14805277557372 L231.52307692307693,152.14805277557372" stroke="#bc5090" stroke-width="2.0" fill="none" />
<path d="M580.1384615384616,432.1007571497064 L607.0769230769231,478.75954121206183 L634.0153846153846,432.1007571497064 L580.1384615384616,432.1007571497064" stroke="#8a508f" stroke-width="2.0" fill="none" />
<path d="M136.44615384615383,755.9676112295855 L163.38461538461536,709.30882716723 L190.32307692307688,755.9676112295855 L136.44615384615383,755.9676112295855" stroke="#00202e" stroke-width="2.0" fill="none" />
<path d="M136.44615384615383,322.3153828853407 L163.38461538461536,368.9741669476961 L190.32307692307688,322.3153828853407 L136.44615384615383,322.3153828853407" stroke="#2c4875" stroke-width="2.0" fill="none" />
<path d="M104.75384615384614,920.6456726261341 L131.69230769230768,873.9868885637786 L158.6307692307692,920.6456726261341 L104.75384615384614,920.6456726261341" stroke="#bc5090" stroke-width="2.0" fill="none" />
<path d="M770.2923076923078,651.6715056784379 L797.2307692307693,698.3302897407934 L824.1692307692308,651.6715056784379 L770.2923076923078,651.6715056784379" stroke="#ff6361" stroke-width="2.0" fill="none" />
<path d="M833.676923076923,651.6715056784379 L860.6153846153845,698.3302897407934 L887.553846153846,651.6715056784379 L833.676923076923,651.6715056784379" stroke="#ff6361" stroke-width="2.0" fill="none" />
<path d="M263.2153846153846,212.5300086209749 L290.15384615384613,259.18879268333035 L317.09230769230766,212.5300086209749 L263.2153846153846,212.5300086209749" stroke="#00202e" stroke-width="2.0" fill="none" />
<path d="M263.2153846153846,761.4568799428037 L290.15384615384613,808.1156640051591 L317.09230769230766,761.4568799428037 L263.2153846153846,761.4568799428037" stroke="#ffd380" stroke-width="2.0" fill="none" />
<path d="M199.83076923076925,646.1822369652197 L226.76923076923077,599.5234529028642 L253.7076923076923,646.1822369652197 L199.83076923076925,646.1822369652197" stroke="#bc5090" stroke-width="2.0" fill="none" />
<path d="M136.44615384615383,212.5300086209749 L163.38461538461536,259.18879268333035 L190.32307692307688,212.5300086209749 L136.44615384615383,212.5300086209749" stroke="#ff6361" stroke-width="2.0" fill="none" />
<path d="M738.6,591.2895498330367 L797.2307692307693,489.73807863849845 L855.8615384615385,591.2895498330367 L738.6,591.2895498330367" stroke="#003f5c" stroke-width="2.0" fill="none" />
<path d="M865.3692307692309,810.8602983617683 L892.3076923076924,764.2015142994128 L919.2461538461539,810.8602983617683 L865.3692307692309,810.8602983617683" stroke="#8a508f" stroke-width="2.0" fill="none" />
<path d="M199.83076923076925,536.396862700854 L226.76923076923077,489.73807863849845 L253.7076923076923,536.396862700854 L199.83076923076925,536.396862700854" stroke="#ffa600" stroke-width="2.0" fill="none" />
<path d="M675.2153846153847,267.42269575315777 L702.1538461538462,314.0814798155132 L729.0923076923077,267.42269575315777 L675.2153846153847,267.42269575315777" stroke="#2c4875" stroke-width="2.0" fill="none" />
<path d="M580.1384615384616,865.7529854939512 L607.0769230769231,819.0942014315957 L634.0153846153846,865.7529854939512 L580.1384615384616,865.7529854939512" stroke="#ffd380" stroke-width="2.0" fill="none" />
<path d="M643.523076923077,102.74463435660914 L670.4615384615386,149.40341841896458 L697.4000000000001,102.74463435660914 L643.523076923077,102.74463435660914" stroke="#8a508f" stroke-width="2.0" fill="none" />
<path d="M104.75384615384614,377.20807001752354 L131.69230769230768,423.866854079879 L158.6307692307692,377.20807001752354 L104.75384615384614,377.20807001752354" stroke="#ffa600" stroke-width="2.0" fill="none" />
<path d="M833.676923076923,761.4568799428037 L860.6153846153845,808.1156640051591 L887.553846153846,761.4568799428037 L833.676923076923,761.4568799428037" stroke="#8a508f" stroke-width="2.0" fill="none" />
<path d="M706.9076923076923,646.1822369652197 L733.8461538461538,599.5234529028642 L760.7846153846153,646.1822369652197 L706.9076923076923,646.1822369652197" stroke="#ff6361" stroke-width="2.0" fill="none" />
<path d="M675.2153846153847,920.6456726261341 L702.1538461538462,873.9868885637786 L729.0923076923077,920.6456726261341 L675.2153846153847,920.6456726261341" stroke="#003f5c" stroke-width="2.0" fill="none" />
<path d="M136.44615384615383,865.7529854939512 L163.38461538461536,819.0942014315957 L190.32307692307688,865.7529854939512 L136.44615384615383,865.7529854939512" stroke="#00202e" stroke-width="2.0" fill="none" />
<path d="M453.3692307692308,865.7529854939512 L480.3076923076923,819.0942014315957 L507.24615384615385,865.7529854939512 L453.3692307692308,865.7529854939512" stroke="#bc5090" stroke-width="2.0" fill="none" />
<path d="M231.52307692307693,701.0749240974026 L258.46153846153845,654.4161400350471 L285.4,701.0749240974026 L231.52307692307693,701.0749240974026" stroke="#00202e" stroke-width="2.0" fill="none" />
<path d="M389.9846153846154,212.5300086209749 L416.9230769230769,259.18879268333035 L443.86153846153843,212.5300086209749 L389.9846153846154,212.5300086209749" stroke="#ffd380" stroke-width="2.0" fill="none" />
<path d="M548.446153846154,267.42269575315777 L575.3846153846155,314.0814798155132 L602.323076923077,267.42269575315777 L548.446153846154,267.42269575315777" stroke="#ffa600" stroke-width="2.0" fill="none" />
<path d="M643.523076923077,761.4568799428037 L670.4615384615386,808.1156640051591 L697.4000000000001,761.4568799428037 L643.523076923077,761.4568799428037" stroke="#00202e" stroke-width="2.0" fill="none" />
<path d="M168.13846153846154,706.5641928106209 L226.76923076923077,808.1156640051591 L285.4,706.5641928106209 L168.13846153846154,706.5641928106209" stroke="#bc5090" stroke-width="2.0" fill="none" />
<path d="M706.9076923076923,102.74463435660914 L733.8461538461538,149.40341841896458 L760.7846153846153,102.74463435660914 L706.9076923076923,102.74463435660914" stroke="#003f5c" stroke-width="2.0" fill="none" />
<path d="M865.3692307692309,706.5641928106209 L892.3076923076924,753.2229768729763 L919.2461538461539,706.5641928106209 L865.3692307692309,706.5641928106209" stroke="#bc5090" stroke-width="2.0" fill="none" />
<path d="M548.446153846154,481.504175568671 L575.3846153846155,434.84539150631554 L602.323076923077,481.504175568671 L548.446153846154,481.504175568671" stroke="#ffd380" stroke-width="2.0" fill="none" />
<path d="M421.67692307692306,816.3495670749866 L448.6153846153846,863.0083511373421 L475.5538461538461,816.3495670749866 L421.67692307692306,816.3495670749866" stroke="#ffd380" stroke-width="2.0" fill="none" />
<path d="M643.523076923077,432.1007571497064 L670.4615384615386,478.75954121206183 L697.4000000000001,432.1007571497064 L643.523076923077,432.1007571497064" stroke="#ff6361" stroke-width="2.0" fill="none" />
<path d="M833.676923076923,541.8861314140722 L860.6153846153845,588.5449154764277 L887.553846153846,541.8861314140722 L833.676923076923,541.8861314140722" stroke="#ff6361" stroke-width="2.0" fill="none" />
<path d="M231.52307692307693,591.2895498330369 L258.46153846153845,544.6307657706814 L285.4,591.2895498330369 L231.52307692307693,591.2895498330369" stroke="#00202e" stroke-width="2.0" fill="none" />
<path d="M801.9846153846154,816.3495670749866 L828.9230769230769,863.0083511373421 L855.8615384615384,816.3495670749866 L801.9846153846154,816.3495670749866" stroke="#ff6361" stroke-width="2.0" fill="none" />
<path d="M580.1384615384616,646.1822369652197 L607.0769230769231,599.5234529028642 L634.0153846153846,646.1822369652197 L580.1384615384616,646.1822369652197" stroke="#003f5c" stroke-width="2.0" fill="none" />
<path d="M168.1384615384615,157.63732148879203 L195.07692307692307,204.29610555114746 L222.01538461538462,157.63732148879203 L168.1384615384615,157.63732148879203" stroke="#ff8531" stroke-width="2.0" fill="none" />
<path d="M104.75384615384614,152.14805277557372 L131.69230769230768,105.48926871321828 L158.6307692307692,152.14805277557372 L104.75384615384614,152.14805277557372" stroke="#ff6361" stroke-width="2.0" fill="none" />
<path d="M833.676923076923,646.1822369652197 L860.6153846153845,599.5234529028642 L887.553846153846,646.1822369652197 L833.676923076923,646.1822369652197" stroke="#ff8531" stroke-width="2.0" fill="none" />
<path d="M326.6,212.5300086209749 L353.53846153846155,259.18879268333035 L380.4769230769231,212.5300086209749 L326.6,212.5300086209749" stroke="#00202e" stroke-width="2.0" fill="none" />
<path d="M326.6,432.1007571497064 L353.53846153846155,478.75954121206183 L380.4769230769231,432.1007571497064 L326.6,432.1007571497064" stroke="#bc5090" stroke-width="2.0" fill="none" />
<path d="M516.7538461538461,536.396862700854 L543.6923076923076,489.73807863849845 L570.6307692307691,536.396862700854 L516.7538461538461,536.396862700854" stroke="#8a508f" stroke-width="2.0" fill="none" />
<path d="M611.8307692307692,810.8602983617683 L638.7692307692307,764.2015142994128 L665.7076923076922,810.8602983617683 L611.8307692307692,810.8602983617683" stroke="#ff8531" stroke-width="2.0" fill="none" />
<path d="M485.0615384615385,920.6456726261341 L512.0,873.9868885637786 L538.9384615384615,920.6456726261341 L485.0615384615385,920.6456726261341" stroke="#003f5c" stroke-width="2.0" fill="none" />
<path d="M104.75384615384614,486.9934442818893 L131.69230769230768,533.6522283442448 L158.6307692307692,486.9934442818893 L104.75384615384614,486.9934442818893" stroke="#ffd380" stroke-width="2.0" fill="none" />
<path d="M485.0615384615385,377.20807001752354 L512.0,423.866854079879 L538.9384615384615,377.20807001752354 L485.0615384615385,377.20807001752354" stroke="#ffd380" stroke-width="2.0" fill="none" />
<path d="M548.446153846154,706.5641928106209 L575.3846153846155,753.2229768729763 L602.323076923077,706.5641928106209 L548.446153846154,706.5641928106209" stroke="#ff8531" stroke-width="2.0" fill="none" />
<path d="M675.2153846153847,481.504175568671 L702.1538461538462,434.84539150631554 L729.0923076923077,481.504175568671 L675.2153846153847,481.504175568671" stroke="#ff6361" stroke-width="2.0" fill="none" />
<path d="M136.44615384615383,207.04073990775663 L163.38461538461536,160.3819558454012 L190.32307692307688,207.04073990775663 L136.44615384615383,207.04073990775663" stroke="#003f5c" stroke-width="2.0" fill="none" />
<path d="M611.8307692307692,816.3495670749866 L638.7692307692307,863.0083511373421 L665.7076923076922,816.3495670749866 L611.8307692307692,816.3495670749866" stroke="#00202e" stroke-width="2.0" fill="none" />
<path d="M611.8307692307692,377.20807001752354 L638.7692307692307,423.866854079879 L665.7076923076922,377.20807001752354 L611.8307692307692,377.20807001752354" stroke="#2c4875" stroke-width="2.0" fill="none" />
<path d="M485.0615384615385,591.2895498330369 L512.0,544.6307657706814 L538.9384615384615,591.2895498330369 L485.0615384615385,591.2895498330369" stroke="#ff6361" stroke-width="2.0" fill="none" />
<path d="M199.83076923076925,102.74463435660914 L226.76923076923077,149.40341841896458 L253.7076923076923,102.74463435660914 L199.83076923076925,102.74463435660914" stroke="#ff8531" stroke-width="2.0" fill="none" />
<path d="M168.1384615384615,152.14805277557372 L195.07692307692307,105.48926871321828 L222.01538461538462,152.14805277557372 L168.1384615384615,152.14805277557372" stroke="#ffa600" stroke-width="2.0" fill="none" />
</svg>